<svg width="671" height="418" viewBox="0 0 671 418" fill="none" xmlns="http://www.w3.org/2000/svg">
<path d="M104.45 101.319V185.539" stroke="#2A272D" stroke-width="1.9882" stroke-miterlimit="10"/>
<path d="M165.37 101.319V185.539" stroke="#2A272D" stroke-width="1.9882" stroke-miterlimit="10"/>
<path d="M68.4301 127.329C68.4301 127.329 80.1201 124.679 81.8801 132.289C83.4001 138.819 67.5001 138.569 67.5001 138.569L32.5401 138.779C32.5401 138.779 19.3701 140.299 12.8601 125.109C6.35011 109.919 0.0801075 70.1393 0.0801075 70.1393C0.0801075 70.1393 -0.859894 64.6693 3.70011 63.8693C9.06011 62.9293 10.1101 74.5093 10.1101 74.5093C10.1101 74.5093 18.2101 123.609 29.9701 126.009C31.7801 126.379 33.2201 127.749 35.0701 127.729L68.4301 127.329Z" fill="#FFEEE3"/>
<path d="M99.5001 87.6693L110.54 86.9093C111.44 86.8493 112.3 87.2593 112.81 87.9893L118.98 97.3193L113.73 97.5693L110.77 93.0193C110.77 93.0193 102.24 95.1493 99.0901 93.0193L99.5001 87.6693Z" fill="#F2C09E"/>
<path d="M55.0301 57.4393L69.7801 84.8493L100.43 85.8293V95.9093L68.0601 97.3293C63.7801 97.5193 59.7201 95.4693 57.3201 91.9193L42.5901 65.4693L55.0301 57.4393Z" fill="#EFC375"/>
<path d="M100.43 85.8193V95.8993L97.0101 96.0493V85.7093L100.43 85.8193Z" fill="#F7E5DA"/>
<path d="M84.3701 167.069L86.1001 179.189L94.8201 178.649L93.5701 166.139L84.3701 167.069Z" fill="#FCC9A7"/>
<path d="M84.1501 177.959C84.3401 177.389 85.0201 177.159 85.5101 177.509C86.4701 178.189 88.1601 178.999 90.5901 178.689C93.1201 178.369 94.0101 177.019 94.3201 176.069C94.4801 175.569 95.0201 175.299 95.5101 175.489L111.23 181.649C112.19 182.019 112.95 182.759 113.36 183.699C113.74 184.579 113.11 185.569 112.14 185.589L85.5201 185.979C84.4701 185.999 83.6301 185.129 83.6701 184.079L83.8601 178.939C83.8601 178.849 83.8801 178.769 83.9101 178.689L84.1501 177.959Z" fill="#1F252A"/>
<path d="M57.8801 55.0893L60.3801 59.0993C60.5401 59.4793 60.6101 60.3993 59.9201 60.7393L58.9501 61.4393L56.8701 58.2593L57.8801 55.0893Z" fill="#FFEEE3"/>
<path d="M53.2201 59.3293L52.4301 58.9493C49.8301 57.6793 48.7501 54.5393 50.0201 51.9393L58.4601 34.6593L67.8301 39.2393L58.0801 58.5893C57.0401 60.7393 55.3701 60.3793 53.2201 59.3293Z" fill="#FCC9A7"/>
<path d="M74.8201 42.6493C72.0701 48.2693 65.2801 50.6093 59.6601 47.8593C54.0401 45.1093 51.7001 38.3293 54.4501 32.6993C57.2001 27.0793 63.9801 24.7393 69.6101 27.4893C75.2401 30.2393 77.5701 37.0293 74.8201 42.6493Z" fill="#FCC9A7"/>
<path d="M61.1401 53.8293C58.4701 52.5293 57.3601 49.2993 58.6701 46.6293L63.4301 36.8793L74.9101 42.4893L71.0301 50.4393C69.2301 54.0993 64.8001 55.6293 61.1401 53.8293Z" fill="#FCC9A7"/>
<path d="M73.4201 44.7793L74.0401 49.1393C74.0901 49.8293 73.3601 50.2793 72.7201 49.9693L69.9001 49.1993L73.4201 44.7793Z" fill="#FCC9A7"/>
<path d="M63.4801 42.5993C63.4801 42.5993 67.4501 42.8593 68.1001 36.7293C68.1001 36.7293 75.0001 41.1293 77.8101 39.3793C77.8101 39.3793 78.6701 22.0393 64.3401 22.6493C50.0101 23.2593 48.8901 38.7293 48.8901 38.7293L56.9301 45.9893L63.4801 42.5993Z" fill="#1C2226"/>
<path d="M64.0501 42.8493C63.3001 44.3993 61.4301 45.0393 59.8801 44.2793C58.3401 43.5193 57.6901 41.6593 58.4501 40.1093C59.2001 38.5593 61.0701 37.9193 62.6201 38.6793C64.1601 39.4393 64.8001 41.2993 64.0501 42.8493Z" fill="#FCC9A7"/>
<path d="M55.3001 40.5493L53.1701 45.5193C53.1701 45.5193 57.8501 49.2693 60.2101 44.4393L56.8101 43.4793L55.3001 40.5493Z" fill="#1C2226"/>
<path d="M68.1001 36.7293C68.1001 36.7293 77.4501 43.9493 81.1401 37.8993C84.0801 33.0693 80.8101 29.9393 76.0901 30.7193C74.0501 31.0593 73.0401 29.6793 71.4401 28.5893L68.1001 36.7293Z" fill="#1C2226"/>
<path d="M59.7001 63.8593C59.7001 63.8593 59.4901 59.4493 58.0901 57.9193C56.6901 56.3893 49.2301 52.1693 49.2301 52.1693C49.2301 52.1693 38.5001 55.2793 31.9101 67.5393C26.7801 77.0893 21.9501 101.259 21.9501 101.259L52.9101 105.749C55.5801 87.6893 60.5801 79.4593 59.7001 63.8593Z" fill="#FFD686"/>
<path d="M49.7501 51.3193L48.4601 51.8993C48.0001 52.1093 47.9001 52.7293 48.2801 53.0693L56.4601 60.3493C56.7901 60.6493 57.3101 60.5593 57.5401 60.1793L58.4601 58.5893C58.6301 58.2893 58.5601 57.9093 58.2901 57.6893L50.4701 51.4293C50.2701 51.2493 49.9901 51.2093 49.7501 51.3193Z" fill="#FFEEE3"/>
<path d="M96.0901 89.3093L107.13 88.5493C108.03 88.4893 108.89 88.8993 109.4 89.6293L115.06 97.6793L109.77 98.3593L107.36 94.6493C107.36 94.6493 98.8301 96.7793 95.6801 94.6493L96.0901 89.3093Z" fill="#FCC9A7"/>
<path d="M48.7601 59.4793L65.4201 87.5893L97.0201 88.4593V97.5493L62.9201 99.0393C59.7201 99.1793 56.6701 97.6493 54.8701 94.9893L36.3201 67.5093L48.7601 59.4793Z" fill="#FFD686"/>
<path d="M97.0201 88.4593V97.5393L93.6001 97.6893V88.4593H97.0201Z" fill="#FFEEE3"/>
<path d="M21.9501 101.259L82.8501 110.089C87.5101 110.769 91.1101 114.539 91.5601 119.229L96.1001 171.099L82.5001 171.979L75.9601 127.019L37.7201 128.009C27.3401 128.009 19.3801 118.789 20.8901 108.519L21.9501 101.259Z" fill="#54585A"/>
<path d="M129.89 97.3293H97.7701V99.4093H129.89V97.3293Z" fill="#2A272D"/>
<path d="M129.9 99.4093L140.29 69.0593L138.11 68.5393L127.92 97.6893L129.9 99.4093Z" fill="#2A272D"/>
<path d="M60.6301 53.5493C60.6301 53.5493 57.7401 51.8393 57.7401 48.2393C57.7401 48.2393 55.9401 52.1393 59.6101 55.5693L60.6301 53.5493Z" fill="#F2C09E"/>
<path d="M13.2201 187.499C13.7001 187.499 14.1401 187.169 14.2701 186.679L30.1701 123.989C31.4901 118.799 36.1401 115.169 41.5001 115.169C46.7001 115.169 51.3201 118.659 52.7401 123.659C58.3001 143.249 71.2401 185.989 71.3701 186.419C71.5401 186.989 72.1501 187.319 72.7201 187.139C73.2901 186.969 73.6201 186.359 73.4401 185.789C73.3101 185.359 60.3701 142.639 54.8201 123.069C53.1401 117.139 47.6601 112.999 41.4901 112.999C35.1401 112.999 29.6201 117.299 28.0601 123.449L12.1601 186.149C12.0101 186.729 12.3601 187.319 12.9401 187.469C13.0401 187.489 13.1301 187.499 13.2201 187.499Z" fill="#1F252A"/>
<path d="M54.8801 94.9793L45.3301 80.8493" stroke="#EFC375" stroke-width="0.7847" stroke-miterlimit="10" stroke-linecap="round" stroke-linejoin="round"/>
<path d="M175.89 99.4093H92.6801V103.159H175.89V99.4093Z" fill="#FFEEE3"/>
<path d="M104.45 112.269H165.37" stroke="#2A272D" stroke-width="1.9882" stroke-miterlimit="10"/>
<path d="M60.4801 78.5593L51.3301 63.8093" stroke="#EFC375" stroke-width="0.7847" stroke-miterlimit="10" stroke-linecap="round" stroke-linejoin="round"/>
<path d="M21.0506 404.875H52.0206L52.0206 353.135H21.0506L21.0506 404.875Z" fill="#B2B2B2"/>
<path d="M51.898 404.875H82.868V353.135H51.898L51.898 404.875Z" fill="#D1D1D1"/>
<path d="M54.6801 304.209L58.4101 322.069L46.7601 323.569C46.7601 323.569 45.7501 305.009 46.7601 304.909C47.7701 304.819 54.6801 304.209 54.6801 304.209Z" fill="#A8754B"/>
<path d="M43.7801 286.269C43.7801 286.269 55.4201 287.909 57.5101 305.619C57.5101 305.619 53.8001 309.609 49.0701 308.379L43.7801 286.269Z" fill="#FFD686"/>
<path d="M38.7301 285.659C38.7301 285.659 27.3901 284.539 23.4001 292.529C19.4001 300.519 31.0601 308.839 27.0601 327.149L52.2001 325.819V309.669C52.2001 309.669 56.7801 302.989 50.2901 295.829C50.2901 295.829 49.9001 284.949 38.7301 285.659Z" fill="#FFD686"/>
<path d="M76.1301 329.739C76.1301 329.739 84.2801 326.719 86.4701 334.629C88.6601 342.529 97.7401 394.179 97.7401 394.179H90.4601L86.1801 373.649C86.1801 373.649 80.1401 366.919 78.2901 352.629L52.8901 349.599L76.1301 329.739Z" fill="#B5845B"/>
<path d="M59.4701 348.639C59.4701 348.639 63.7901 348.519 71.4601 346.079C79.1301 343.629 84.6001 346.219 81.5801 354.859C78.5601 363.489 63.3001 403.489 63.3001 403.489L57.5201 401.759L62.5101 375.859C62.5101 375.859 63.6801 363.009 69.1001 355.479C69.1001 355.479 57.7001 356.049 53.8001 355.449C49.9201 354.859 59.4701 348.639 59.4701 348.639Z" fill="#A8754B"/>
<path d="M27.0601 327.149C27.0601 327.149 17.8401 338.739 28.9301 350.119C28.9301 350.119 34.6401 356.769 59.8101 355.729C59.8101 355.729 66.4101 333.449 80.4501 327.459L51.3901 323.569L27.0601 327.149Z" fill="#0C2C40"/>
<path d="M39.3501 256.069C39.3501 256.069 42.3501 243.859 31.9601 243.789C24.2701 243.739 21.9801 252.929 31.4101 259.079L39.3501 256.069Z" fill="#190D08"/>
<path d="M31.0601 261.299C31.0601 261.299 29.1801 256.499 34.5401 254.069C39.9001 251.639 41.6101 257.389 41.6101 257.389L31.0601 261.299Z" fill="#FD6C75"/>
<path d="M51.4201 272.219C51.4201 272.219 59.1601 267.639 50.7901 258.439C45.5601 252.689 36.4001 253.009 31.3001 258.709C26.2001 264.409 31.0101 274.459 31.0101 274.459L34.4801 268.689L37.5201 264.209L41.8701 262.469L45.2801 262.709L48.1701 263.079L50.5001 264.059L51.4201 272.219Z" fill="#27160C"/>
<path d="M45.0981 275.92L36.3992 274.803L34.6385 288.511L43.3375 289.628L45.0981 275.92Z" fill="#B5845B"/>
<path d="M35.4901 278.879C35.4901 278.879 36.4301 283.869 40.4401 284.879C41.6901 285.189 43.0501 284.829 43.8101 283.799C44.0201 283.519 44.1701 283.199 44.2201 282.839C44.4101 281.399 40.6101 278.879 40.6101 278.879H35.4901Z" fill="#A8754B"/>
<path d="M41.6201 282.429L41.1701 282.369C36.1801 281.729 32.6501 277.159 33.2901 272.169L33.8001 268.209C34.4401 263.219 39.0101 259.689 44.0001 260.329L44.4501 260.389C49.4401 261.029 52.9701 265.599 52.3301 270.589L51.8201 274.549C51.1801 279.539 46.6101 283.069 41.6201 282.429Z" fill="#B5845B"/>
<path d="M34.2701 271.179C34.2701 271.179 40.5301 269.139 40.3701 262.109C40.3701 262.109 40.7701 256.869 35.2901 261.719C29.8101 266.569 34.2701 271.179 34.2701 271.179Z" fill="#27160C"/>
<path d="M35.6501 273.099C35.4301 274.779 33.9001 275.969 32.2101 275.749C30.5301 275.529 29.3401 273.999 29.5601 272.319C29.7801 270.639 31.3101 269.449 33.0001 269.669C34.6801 269.879 35.8701 271.419 35.6501 273.099Z" fill="#B5845B"/>
<path d="M37.6601 267.659L37.3801 269.879C36.7401 273.009 35.4201 272.059 34.9401 270.709L37.6601 267.659Z" fill="#27160C"/>
<path d="M53.2901 266.529C53.2901 266.529 46.9001 271.319 37.5301 264.219C31.0701 259.329 40.8401 257.569 40.8401 257.569L49.9501 259.449L53.2901 266.529Z" fill="#27160C"/>
<path d="M34.6501 288.499C34.6501 288.499 40.1201 298.259 44.0001 295.259C48.1901 292.019 38.7301 285.659 38.7301 285.659L34.6501 288.499Z" fill="#B5845B"/>
<path d="M37.0701 308.379C37.0701 308.379 40.4501 314.609 42.7601 319.499L67.4001 318.079C67.4001 318.079 72.2901 314.079 76.1201 317.459L72.3401 321.999L41.4901 328.829C40.3101 329.089 39.0801 328.749 38.2101 327.929C35.4801 325.349 29.5401 319.339 26.6601 313.209L37.0701 308.379Z" fill="#B5845B"/>
<path d="M105.46 298.769H75.1801C74.1801 298.769 73.3201 299.469 73.1201 300.439L67.4201 327.189C67.1401 328.499 68.1401 329.739 69.4801 329.739H100.27C101.28 329.739 102.15 329.019 102.34 328.029L107.54 301.279C107.78 299.979 106.78 298.769 105.46 298.769Z" fill="#B2B2B2"/>
<path d="M107.2 298.769H76.9201C75.9201 298.769 75.0601 299.469 74.8601 300.439L69.1601 327.189C68.8801 328.499 69.8801 329.739 71.2201 329.739H102.01C103.02 329.739 103.89 329.019 104.08 328.029L109.28 301.279C109.52 299.979 108.53 298.769 107.2 298.769Z" fill="#D1D1D1"/>
<path d="M68.2201 327.459H47.5301C46.9001 327.459 46.3901 327.969 46.3901 328.599C46.3901 329.229 46.9001 329.739 47.5301 329.739H68.6201L68.2201 327.459Z" fill="#B2B2B2"/>
<path d="M88.4501 313.559C88.4501 315.379 89.9301 316.859 91.7501 316.859C93.5701 316.859 95.0501 315.379 95.0501 313.559C95.0501 311.739 93.5701 310.259 91.7501 310.259C89.9301 310.259 88.4501 311.729 88.4501 313.559Z" fill="white"/>
<path d="M26.6601 288.639C26.2501 288.819 12.6801 295.489 26.0301 316.159C26.0301 316.159 34.5601 316.299 39.5001 309.949C39.5101 309.949 37.8701 283.719 26.6601 288.639Z" fill="#FFD686"/>
<path d="M55.9501 400.629C56.1301 400.089 56.7201 399.889 57.1201 400.239C57.9001 400.929 59.3001 401.779 61.3601 401.569C63.5101 401.359 64.3101 400.089 64.6201 399.179C64.7801 398.699 65.2401 398.459 65.6501 398.659L78.6701 405.199C79.4601 405.599 80.0801 406.339 80.3801 407.259C80.6701 408.129 80.0901 409.059 79.2701 409.039L56.7801 408.419C55.8901 408.399 55.2201 407.529 55.2901 406.519L55.6601 401.559C55.6701 401.479 55.6801 401.399 55.7101 401.319L55.9501 400.629Z" fill="#FD6C75"/>
<path d="M88.7801 392.069C88.8201 391.499 89.3301 391.149 89.8001 391.389C90.7301 391.849 92.3001 392.299 94.2401 391.559C96.2501 390.789 96.7001 389.359 96.7601 388.399C96.7901 387.899 97.1701 387.539 97.6201 387.629L111.9 390.539C112.77 390.719 113.56 391.269 114.1 392.079C114.61 392.839 114.29 393.889 113.5 394.079L91.6301 399.369C90.7701 399.579 89.8901 398.919 89.7001 397.919L88.7601 393.039C88.7401 392.959 88.7401 392.879 88.7401 392.789L88.7801 392.069Z" fill="#FD6C75"/>
<path d="M397.53 36.5093C397.86 33.6293 400.45 31.5593 403.33 31.8893C406.21 32.2193 408.28 34.8093 407.95 37.6893C407.62 40.5693 405.03 42.6393 402.15 42.3093C399.27 41.9893 397.2 39.3893 397.53 36.5093Z" fill="#FCC9A7"/>
<path d="M400.74 35.3093L394.69 47.4993L399.65 50.1293L404.61 41.2993L400.74 35.3093Z" fill="#FCC9A7"/>
<path d="M360.71 55.8993L387.9 70.1893C388.98 70.8093 390.36 70.3893 390.91 69.2693L403.52 46.3793L396.25 41.6493L386.12 58.5993L366.98 46.5093C364.14 44.3193 360.01 45.2893 358.44 48.5093C357.15 51.1993 358.14 54.4193 360.71 55.8993Z" fill="#F9A772"/>
<path d="M365.07 126.099C365.07 126.099 358.27 137.809 354.36 145.389C353.75 146.569 352.75 147.439 351.86 148.429C349.18 151.409 346.64 154.629 343.67 160.379C339.25 168.949 331.88 186.229 331.88 186.229L326.73 184.319L332.28 165.299C332.28 165.299 333.21 148.579 343.93 139.609C343.93 139.609 346.84 134.549 349.34 124.689L365.07 126.099Z" fill="#F2C09E"/>
<path d="M374.59 121.039C374.59 121.039 367.53 165.729 368.71 187.699L362.61 187.919L360.82 168.619C360.82 168.619 355.5 155.349 360.89 143.819L358.4 117.879L374.59 121.039Z" fill="#FCC9A7"/>
<path d="M356.96 37.2393C356.96 37.2393 350.17 43.2993 351.89 52.2693C353.61 61.2493 358.61 65.1093 357.77 71.0293L377.16 70.3293L376.76 59.3393C376.76 59.3393 383.06 54.5293 376.31 46.8593L370.5 40.2393L365.29 40.9093L356.96 37.2393Z" fill="#F9A772"/>
<path d="M367.05 35.7493L370.98 38.0393L373.61 42.4693L368.19 40.8093L367.05 35.7493Z" fill="#F7EBE7"/>
<path d="M365.3 40.9093C364.13 40.8993 362.89 40.4193 361.97 39.9393C361.06 39.4693 360.5 38.5193 360.5 37.4893L360.69 18.6893L368.91 18.7293L368.72 37.2893C368.71 39.4393 367.17 40.9193 365.3 40.9093Z" fill="#FCC9A7"/>
<path d="M368.77 32.0893L365.38 27.2893C365.38 27.2893 363.3 32.7693 368.75 34.4693L368.77 32.0893Z" fill="#F2C09E"/>
<path d="M376.17 18.7693C376.14 24.3693 371.58 28.8793 365.99 28.8593C360.39 28.8293 355.87 24.2693 355.9 18.6793C355.93 13.0793 360.49 8.55927 366.09 8.58927C371.68 8.61927 376.2 13.1693 376.17 18.7693Z" fill="#FCC9A7"/>
<path d="M369.5 32.1493C366.84 32.1393 364.7 29.9693 364.71 27.3093L364.74 20.3693L376.17 18.7693L376.14 25.5693C376.12 29.2193 373.15 32.1593 369.5 32.1493Z" fill="#FCC9A7"/>
<path d="M375.86 21.0393L378.06 24.3093C378.37 24.8393 377.96 25.4893 377.31 25.4893L374.74 25.9593L375.86 21.0393Z" fill="#FCC9A7"/>
<path d="M360.37 34.0093L370.51 40.2493L368.31 44.5793L356.96 37.2493C356.96 37.2393 358.38 34.7593 360.37 34.0093Z" fill="#F7EBE7"/>
<path d="M357.78 71.0393L356.39 75.7793L377.45 75.0193L377.16 70.3393L357.78 71.0393Z" fill="#F7EBE7"/>
<path d="M377.45 75.0193L378.41 128.309C378.41 128.309 357.19 132.489 345.51 125.249C345.51 125.249 350.07 108.109 349.22 101.099C347.64 88.2493 349.45 82.6993 356.41 75.7693L377.45 75.0193Z" fill="#E49258"/>
<path d="M360.74 185.039C360.89 184.509 361.45 184.289 361.86 184.609C362.65 185.249 364.05 185.999 366.05 185.709C368.13 185.399 368.86 184.139 369.11 183.239C369.24 182.769 369.68 182.509 370.09 182.689L383.04 188.469C383.83 188.819 384.46 189.519 384.8 190.399C385.12 191.229 384.6 192.159 383.8 192.179L361.9 192.589C361.04 192.609 360.34 191.789 360.37 190.809L360.51 185.969C360.51 185.889 360.52 185.809 360.55 185.729L360.74 185.039Z" fill="#1F252A"/>
<path d="M325.88 180.619C326.17 180.149 326.77 180.079 327.07 180.499C327.66 181.329 328.81 182.419 330.82 182.669C332.9 182.929 333.94 181.899 334.43 181.099C334.68 180.679 335.17 180.549 335.52 180.829L346.48 189.829C347.15 190.379 347.57 191.209 347.67 192.159C347.76 193.049 347.01 193.809 346.24 193.609L325.01 188.199C324.18 187.989 323.72 187.019 324 186.079L325.42 181.449C325.44 181.369 325.48 181.299 325.52 181.229L325.88 180.619Z" fill="#1F252A"/>
<path d="M364.75 23.1493L369.06 22.9893C369.06 22.9893 369.43 19.2493 370.27 18.3493C371.11 17.4493 371.54 13.4493 371.54 13.4493C371.54 13.4493 372.31 15.9393 371.72 18.5193L377.94 18.2993C377.94 18.2993 379.29 7.33927 365.61 6.80927C351.93 6.27927 352.3 19.2193 354.99 21.7893C357.13 23.8293 360.6 27.4593 360.6 27.4593C360.6 27.4593 360.44 23.2993 364.75 23.1493Z" fill="#4C1827"/>
<path d="M367.87 21.8193C367.93 23.4193 366.68 24.7593 365.08 24.8193C363.48 24.8793 362.14 23.6293 362.08 22.0293C362.02 20.4293 363.27 19.0893 364.87 19.0293C366.47 18.9793 367.81 20.2193 367.87 21.8193Z" fill="#FCC9A7"/>
<path d="M356.89 23.8793C357.02 27.4893 354.2 30.5293 350.59 30.6593C346.98 30.7893 343.94 27.9693 343.81 24.3493C343.68 20.7393 346.5 17.6993 350.11 17.5693C353.73 17.4393 356.76 20.2593 356.89 23.8793Z" fill="#4C1827"/>
<path d="M364.14 82.2193C366.99 82.7193 368.9 85.4293 368.41 88.2893C367.91 91.1393 365.2 93.0493 362.34 92.5593C359.49 92.0593 357.58 89.3493 358.07 86.4893C358.57 83.6293 361.29 81.7193 364.14 82.2193Z" fill="#FCC9A7"/>
<path d="M365.92 82.8793L354.11 76.1193L351.19 80.9093L359.71 86.3893L365.92 82.8793Z" fill="#FCC9A7"/>
<path d="M353.43 41.5993L334.48 66.4993C333.68 67.4593 333.85 68.8893 334.86 69.6293L355.34 85.4293L361.26 79.0993L346.19 66.7793L361.57 49.4293C364.22 47.0193 363.99 42.7793 361.09 40.6693C358.68 38.9093 355.34 39.3293 353.43 41.5993Z" fill="#F9A772"/>
<path d="M409.88 24.8193L404.22 39.8493C404.07 40.2593 403.62 40.4693 403.21 40.3393L395.66 37.9593C395.21 37.8193 394.97 37.3193 395.15 36.8793L401 22.0493C401.16 21.6593 401.58 21.4493 401.99 21.5693L409.35 23.7393C409.81 23.8793 410.05 24.3693 409.88 24.8193Z" fill="#1C2226"/>
<path d="M407.97 25.4593L403.7 37.5993C403.6 37.8793 403.3 38.0393 403.01 37.9693L397.35 36.4993C397.01 36.4093 396.83 36.0493 396.96 35.7293L401.81 23.4793C401.92 23.1993 402.23 23.0493 402.52 23.1393L407.6 24.7293C407.91 24.8193 408.08 25.1493 407.97 25.4593Z" fill="#EFEFEF"/>
<path d="M176.17 401.199L172.22 410.689L165.78 407.269L169.71 397.959L176.17 401.199Z" fill="#FCC9A7"/>
<path d="M174.39 410.129C174.39 409.559 173.9 409.189 173.41 409.399C172.45 409.809 170.87 410.159 168.98 409.309C167.02 408.429 166.66 406.979 166.65 406.029C166.65 405.529 166.29 405.149 165.84 405.219L151.47 407.289C150.6 407.419 149.78 407.919 149.2 408.699C148.65 409.429 148.91 410.489 149.68 410.729L171.13 417.249C171.97 417.509 172.89 416.899 173.14 415.919L174.35 411.119C174.37 411.039 174.38 410.959 174.38 410.879L174.39 410.129Z" fill="#1F252A"/>
<path d="M234.4 378.179L243.4 383.139L239.31 389.169L230.48 384.249L234.4 378.179Z" fill="#FCC9A7"/>
<path d="M243.08 380.919C242.51 380.859 242.09 381.309 242.24 381.809C242.54 382.799 242.72 384.419 241.67 386.199C240.58 388.049 239.1 388.259 238.15 388.149C237.65 388.099 237.24 388.409 237.25 388.859L237.74 403.369C237.77 404.249 238.18 405.119 238.89 405.779C239.55 406.399 240.64 406.269 240.96 405.519L249.77 384.909C250.12 384.099 249.61 383.119 248.67 382.769L244.03 381.039C243.95 381.009 243.87 380.989 243.79 380.979L243.08 380.919Z" fill="#1F252A"/>
<path d="M180.93 309.519L184.4 331.779L201.94 363.309L232.14 389.569L239.18 377.119L215.23 354.779L201.18 309.899L180.93 309.519Z" fill="#092330"/>
<path d="M209.43 308.249C209.43 308.249 212.92 314.849 207.5 325.389L190.67 357.509L177.84 406.189L165.1 401.739L174.25 352.509L190.47 314.089L180.93 309.519L209.43 308.249Z" fill="#0C2C40"/>
<path d="M172.74 245.619C174.96 248.049 178.73 248.219 181.15 246.009C183.58 243.789 183.75 240.019 181.54 237.589C179.32 235.159 175.56 234.989 173.12 237.199C170.69 239.429 170.52 243.189 172.74 245.619Z" fill="#FCC9A7"/>
<path d="M167.98 248.679L173.16 242.439L177.29 246.589L172.43 252.539L167.98 248.679Z" fill="#FCC9A7"/>
<path d="M179.67 234.069L174.92 240.429C174.3 241.259 174.32 242.409 174.97 243.209L178.82 247.959C179.72 249.069 181.4 249.079 182.31 247.989L187.68 241.599C188.42 240.719 188.38 239.419 187.59 238.579L183.12 233.859C182.16 232.849 180.51 232.939 179.67 234.069Z" fill="#1C2226"/>
<path d="M184.58 256.489L165.75 265.939L176.09 249.989L169.27 244.089L147.71 273.629C145.75 276.169 146.51 279.869 149.32 281.419C150.75 282.209 152.47 282.289 153.97 281.629L181.89 270.539L184.58 256.489Z" fill="#F7ECE7"/>
<path d="M177.84 265.559C177.84 265.559 181.17 291.669 180.93 309.519C180.93 309.519 190.92 313.919 212.1 307.489L206.86 258.939L196.66 255.509L184.58 256.489L177.84 265.559Z" fill="#F7ECE7"/>
<path d="M188 253.949L188.26 255.649C188.28 255.769 188.24 255.899 188.15 255.989L185.54 258.759C185.3 259.009 184.88 258.869 184.84 258.529L184.57 256.489C184.55 256.359 184.6 256.229 184.7 256.139L187.31 253.709C187.56 253.489 187.96 253.619 188 253.949Z" fill="#FCF3F0"/>
<path d="M191.49 258.339C194.59 258.089 196.9 255.359 196.65 252.259L195.9 243.179L184.66 244.099L186.98 256.649C187.35 258.249 188.38 258.589 191.49 258.339Z" fill="#FCC9A7"/>
<path d="M196.28 246.359C196.28 246.359 193.86 253.239 188.95 252.389C184.44 251.609 184.66 244.099 184.66 244.099L196.28 246.359Z" fill="#F4BE9A"/>
<path d="M189.73 249.889L190.73 249.779C195.71 249.239 199.32 244.759 198.78 239.779L198.17 234.099C197.63 229.119 193.15 225.509 188.17 226.049L187.17 226.159C182.19 226.699 178.58 231.179 179.12 236.159L179.73 241.839C180.27 246.829 184.75 250.429 189.73 249.889Z" fill="#FCC9A7"/>
<path d="M189.73 249.889L190.73 249.779C195.71 249.239 199.32 244.759 198.78 239.779L198.17 234.099C197.63 229.119 193.15 225.509 188.17 226.049L187.17 226.159C182.19 226.699 178.58 231.179 179.12 236.159L179.73 241.839C180.27 246.829 184.75 250.429 189.73 249.889Z" fill="#FCC9A7"/>
<path d="M198.58 237.979C197.9 237.909 195.05 240.069 194.31 239.129C193.29 237.829 192.36 235.459 193.68 232.999C193.9 232.589 193.96 232.109 193.82 231.659C193.56 230.849 192.86 229.909 190.93 230.589C187.84 231.679 180.89 235.179 178.88 230.169C176.34 223.859 196.32 225.619 196.32 225.619L200.87 232.199L198.92 241.579L198.58 237.979Z" fill="#1C2226"/>
<path d="M195.8 238.929C195.99 240.709 197.59 241.999 199.37 241.799C201.15 241.609 202.44 240.009 202.24 238.229C202.05 236.449 200.45 235.159 198.67 235.359C196.89 235.559 195.61 237.149 195.8 238.929Z" fill="#FCC9A7"/>
<path d="M190.47 260.269L193.02 299.579L188.27 304.039L185.45 299.719L188.27 259.489L190.47 260.269Z" fill="#0C2C40"/>
<path d="M186.67 257.559L187.06 257.019L186.96 256.549H192.58L193.02 258.019L189.28 261.319L186.67 257.559Z" fill="#0C2C40"/>
<path d="M196.29 251.729L190.97 255.349C190.37 255.759 190.29 256.619 190.81 257.129L194.99 261.239C195.46 261.699 196.23 261.679 196.67 261.179L200.88 256.449C201.29 255.989 201.27 255.279 200.83 254.849L197.75 251.839C197.36 251.469 196.75 251.419 196.29 251.729Z" fill="#FCF3F0"/>
<path d="M173.75 253.599L165.79 248.799" stroke="#EADDD8" stroke-width="0.7599" stroke-miterlimit="10" stroke-linecap="round" stroke-linejoin="round"/>
<path d="M188.25 291.299L185.46 321.129C185.35 322.249 186.12 323.269 187.23 323.489L221.44 330.029C222.7 330.269 223.89 329.389 224.03 328.119L227.16 299.769C227.28 298.669 226.56 297.649 225.48 297.389L190.93 289.379C189.64 289.069 188.38 289.979 188.25 291.299Z" fill="#AFAFAF"/>
<path d="M190.68 291.829L187.89 321.659C187.79 322.779 188.55 323.799 189.66 324.019L223.87 330.559C225.13 330.799 226.32 329.919 226.46 328.649L229.59 300.299C229.71 299.199 228.99 298.179 227.91 297.919L193.36 289.899C192.06 289.599 190.8 290.509 190.68 291.829Z" fill="#D1D1D1"/>
<path d="M203.59 319.279C200.84 316.759 196.56 316.949 194.04 319.699C191.52 322.449 191.71 326.729 194.46 329.249C197.21 331.769 201.49 331.579 204.01 328.829C206.53 326.069 206.34 321.799 203.59 319.279Z" fill="#FCC9A7"/>
<path d="M208.66 315.339L203.44 322.919L198.36 318.639L203.24 311.429L208.66 315.339Z" fill="#FCC9A7"/>
<path d="M206.87 258.939C206.87 258.939 214.52 259.709 216.74 272.219L225.54 290.499C225.78 291.299 225.94 292.119 226.02 292.939L207.51 319.529L199.16 314.579L214.13 290.579L205.04 276.189L206.87 258.939Z" fill="#F7ECE7"/>
<path d="M201.88 310.989L210.31 315.509" stroke="#EADDD8" stroke-width="0.7599" stroke-miterlimit="10" stroke-linecap="round" stroke-linejoin="round"/>
<path d="M209.49 283.239L204.1 273.859" stroke="#EADDD8" stroke-width="0.7599" stroke-miterlimit="10" stroke-linecap="round" stroke-linejoin="round"/>
<path d="M180.94 232.399C177.12 230.669 177.92 226.209 178.79 224.799C178.79 224.799 178.96 227.309 180.67 226.729C180.67 226.729 180.44 222.989 185.45 222.019C185.45 222.019 183.6 225.379 190.19 224.739C198.28 223.949 198.75 229.069 198.3 235.429L195.82 233.649L193.9 229.219H187.35L180.94 232.399Z" fill="#1C2226"/>
<path d="M480.91 228.699C480.91 228.699 478.12 228.919 477.88 232.779C477.64 236.639 477.62 247.839 482.86 248.529C488.1 249.219 484.33 230.129 484.33 230.129L480.91 228.699Z" fill="#1C2226"/>
<path d="M499.11 232.159C499.11 232.159 501.23 238.069 497 239.149C492.76 240.229 493.55 231.659 493.55 231.659L499.11 232.159Z" fill="#1C2226"/>
<path d="M475.01 269.279L461.9 287.759L462.63 286.029L456.58 313.149L449.84 311.889L454.01 284.419C454.1 283.819 454.33 283.279 454.65 282.819L454.74 282.689L467.85 264.209L475.01 269.279Z" fill="#FCC9A7"/>
<path d="M451.56 321.469C448.11 320.439 446.16 316.799 447.19 313.359C448.22 309.909 451.86 307.959 455.3 308.989C458.75 310.019 460.7 313.659 459.67 317.099C458.64 320.539 455.01 322.499 451.56 321.469Z" fill="#FCC9A7"/>
<path d="M503.39 268.649L511.68 293.989L507.23 290.969L534.23 290.239L534.66 297.089L507.78 299.739C505.78 299.939 503.98 298.699 503.38 296.869L503.33 296.719L495.04 271.379L503.39 268.649Z" fill="#FCC9A7"/>
<path d="M501.92 398.259L505.98 409.449L511.92 404.109L508.13 395.139L501.92 398.259Z" fill="#FCC9A7"/>
<path d="M503.63 406.859C503.63 406.309 504.1 405.949 504.57 406.149C505.49 406.539 507.02 406.879 508.83 406.069C510.72 405.219 511.07 403.829 511.07 402.909C511.07 402.429 511.41 402.069 511.85 402.129L525.68 404.119C526.52 404.239 527.31 404.729 527.87 405.479C528.4 406.179 528.15 407.209 527.41 407.429L506.76 413.709C505.95 413.959 505.07 413.369 504.83 412.429L503.66 407.809C503.64 407.729 503.63 407.649 503.63 407.579V406.859Z" fill="#1F252A"/>
<path d="M447.92 390.659L443.42 399.469L448.66 403.949L454.32 393.379L447.92 390.659Z" fill="#FCC9A7"/>
<path d="M442.48 397.529C442.9 397.179 443.48 397.299 443.63 397.789C443.93 398.749 444.65 400.129 446.45 400.989C448.32 401.879 449.61 401.239 450.31 400.649C450.68 400.339 451.18 400.369 451.41 400.739L458.85 412.569C459.3 413.289 459.44 414.199 459.23 415.109C459.04 415.969 458.1 416.439 457.44 416.019L439.28 404.339C438.57 403.879 438.44 402.829 439 402.039L441.77 398.159C441.82 398.099 441.87 398.039 441.93 397.989L442.48 397.529Z" fill="#1F252A"/>
<path d="M497.33 308.019L479.57 357.289L454.43 398.949L443.22 393.409L465.57 351.879L477.83 310.339L497.33 308.019Z" fill="#092330"/>
<path d="M469.89 308.749C469.89 308.749 466.53 315.099 471.75 325.249L487.96 356.179L500.31 403.059L512.58 398.779L500.84 351.369L488.15 314.379L497.34 308.029L469.89 308.749Z" fill="#0C2C40"/>
<path d="M485.18 254.009L471.35 256.849C469.72 257.179 468.28 258.119 467.31 259.469L458.51 271.729L470.27 279.419L466.03 312.989C466.03 312.989 470.82 327.649 500.04 315.959C500.04 315.959 497.52 288.139 499.21 270.019L498.35 258.089L485.18 254.009Z" fill="#DF945B"/>
<path d="M498.36 258.079L500.66 258.919C502.56 259.609 504.04 261.139 504.67 263.069L509.46 277.679L495.38 280.279L498.36 258.079Z" fill="#DF945B"/>
<path d="M543.21 291.709C543.21 295.309 540.29 298.229 536.69 298.229C533.09 298.229 530.18 295.309 530.18 291.709C530.18 288.109 533.1 285.199 536.69 285.199C540.29 285.199 543.21 288.109 543.21 291.709Z" fill="#FCC9A7"/>
<path d="M489.09 258.239L487.52 259.109C484.47 258.859 481.6 258.209 481.85 255.159L482.58 246.219L493.63 247.129L492.9 256.069C492.65 259.119 492.14 258.489 489.09 258.239Z" fill="#FCC9A7"/>
<path d="M482.43 247.299C482.43 247.299 483.95 253.919 489.51 253.689C494.37 253.479 493.91 246.219 493.91 246.219L482.43 247.299Z" fill="#F4BE9A"/>
<path d="M488.56 251.339L487.62 251.239C482.92 250.729 479.52 246.509 480.02 241.799L480.6 236.439C481.11 231.739 485.33 228.339 490.04 228.839L490.98 228.939C495.68 229.449 499.08 233.669 498.58 238.379L498 243.739C497.49 248.439 493.27 251.839 488.56 251.339Z" fill="#FCC9A7"/>
<path d="M471.08 277.079L474.64 272.879" stroke="#CE804A" stroke-width="0.7693" stroke-miterlimit="10" stroke-linecap="round" stroke-linejoin="round"/>
<path d="M498.68 279.669L499.22 270.999" stroke="#CE804A" stroke-width="0.7693" stroke-miterlimit="10" stroke-linecap="round" stroke-linejoin="round"/>
<path d="M489.09 258.239L482.07 253.999C479.07 252.749 477.16 255.649 477.16 255.649L485.52 263.849L489.09 258.239Z" fill="#EDA472"/>
<path d="M489.09 258.239L492.49 263.499L495.89 257.309C495.89 257.309 494.55 255.199 492.72 255.689L489.09 258.239Z" fill="#EDA472"/>
<path d="M507.41 291.979H549.9C550.61 291.979 551.18 291.409 551.18 290.699C551.18 289.989 550.61 289.419 549.9 289.419H507.41C506.7 289.419 506.13 289.989 506.13 290.699C506.13 291.399 506.7 291.979 507.41 291.979Z" fill="#D1D1D1"/>
<path d="M551.18 290.369L556.26 265.689C556.39 265.079 555.92 264.499 555.29 264.499H529.44C528.97 264.499 528.56 264.829 528.47 265.299L523.46 290.379H551.18V290.369Z" fill="#D1D1D1"/>
<path d="M553.39 266.379L548.65 288.769H525.21L529.95 266.379H553.39Z" fill="#EFEFEF"/>
<path d="M481.16 240.519H484.03L484.59 237.369C484.59 237.369 487.59 235.759 487.01 232.649C487.01 232.649 499.64 237.179 501.61 232.139C504.21 225.489 494.78 223.839 487.01 224.029C479.24 224.209 479.8 234.129 479.8 234.129L481.16 240.519Z" fill="#1C2226"/>
<path d="M482.84 239.889C482.66 241.569 481.15 242.779 479.47 242.599C477.79 242.419 476.58 240.909 476.76 239.229C476.94 237.549 478.45 236.339 480.13 236.519C481.81 236.699 483.02 238.209 482.84 239.889Z" fill="#FCC9A7"/>
<path d="M652.59 279.249L657.4 274.039L662.42 277.229L656.44 283.759L652.59 279.249Z" fill="#FFC9A6"/>
<path d="M666.1 268.369C667.75 271.219 666.84 274.889 664.06 276.579C661.28 278.269 657.68 277.319 656.03 274.469C654.38 271.619 655.29 267.949 658.07 266.259C660.85 264.579 664.44 265.529 666.1 268.369Z" fill="#FFC9A6"/>
<path d="M669.01 259.739C669.5 260.229 669.51 261.029 669.04 261.529L658.37 272.779C657.9 273.279 657.11 273.289 656.62 272.799C656.13 272.319 656.12 271.509 656.59 271.009L667.26 259.759C667.73 259.259 668.52 259.249 669.01 259.739Z" fill="black"/>
<path d="M620.67 271.659L642.43 290.129L654.25 276.209L659.32 282.529L645.36 302.519C644.18 303.929 642.08 304.059 640.74 302.799L620.44 290.869L620.67 271.659Z" fill="#4F4D4B"/>
<path d="M646.32 357.819C646.32 357.819 611.08 383.429 596.91 399.189L592.61 395.189L604.54 380.829C604.54 380.829 609.96 368.169 621.48 363.999L637.46 344.649L646.32 357.819Z" fill="#F2C09E"/>
<path d="M592.62 392.379C593.09 392.119 593.62 392.349 593.67 392.849C593.77 393.819 594.21 395.289 595.77 396.449C597.39 397.659 598.75 397.289 599.53 396.859C599.94 396.629 600.42 396.749 600.57 397.149L605.45 409.909C605.75 410.679 605.7 411.589 605.33 412.419C604.98 413.199 603.99 413.479 603.44 412.949L588.25 398.309C587.65 397.729 587.73 396.699 588.42 396.049L591.81 392.849C591.87 392.799 591.93 392.749 592 392.709L592.62 392.379Z" fill="#1F252A"/>
<path d="M647.66 345.519C647.66 345.519 649.37 389.049 654.6 409.579L648.88 410.929L643.58 393.029C643.58 393.029 636.07 381.489 639 369.589L631.79 345.549L647.66 345.519Z" fill="#FCC9A7"/>
<path d="M646.56 408.559C646.6 408.029 647.09 407.709 647.53 407.949C648.39 408.409 649.86 408.859 651.69 408.199C653.6 407.519 654.05 406.189 654.12 405.299C654.16 404.829 654.52 404.499 654.94 404.599L668.26 407.629C669.07 407.809 669.8 408.349 670.28 409.119C670.74 409.839 670.42 410.819 669.67 410.989L649.06 415.479C648.25 415.659 647.44 415.019 647.28 414.079L646.51 409.489C646.5 409.409 646.49 409.339 646.5 409.259L646.56 408.559Z" fill="#1F252A"/>
<path d="M615.65 338.949L614.76 366.669L654.9 368.669C654.9 368.669 650.47 352.719 646.92 337.079L615.65 338.949Z" fill="#F7ECE7"/>
<path d="M622.78 266.359C621.61 266.219 620.43 265.589 619.56 265.009C618.7 264.439 618.25 263.419 618.37 262.389L620.73 243.629L628.94 244.619L626.62 263.149C626.36 265.269 624.66 266.579 622.78 266.359Z" fill="#FCC9A7"/>
<path d="M627.27 257.939L624.43 252.749C624.43 252.749 621.72 257.989 626.97 260.309L627.27 257.939Z" fill="#F2C09E"/>
<path d="M636.21 245.489C635.54 251.079 630.46 255.069 624.87 254.389C619.28 253.719 615.29 248.639 615.97 243.049C616.64 237.459 621.72 233.469 627.31 234.149C632.9 234.819 636.88 239.899 636.21 245.489Z" fill="#FCC9A7"/>
<path d="M627.99 258.079C625.34 257.759 623.44 255.349 623.76 252.689L624.6 245.759L636.21 245.479L635.39 252.269C634.95 255.919 631.64 258.519 627.99 258.079Z" fill="#FCC9A7"/>
<path d="M635.64 247.719L637.46 251.239C637.71 251.809 637.22 252.409 636.58 252.329L633.96 252.509L635.64 247.719Z" fill="#FCC9A7"/>
<path d="M625.86 248.779L628.09 248.599L628.95 244.619C628.95 244.619 638.09 246.239 639.46 241.909C639.46 241.909 634.18 227.349 621.4 233.029C611.92 237.239 614.64 247.659 617.76 251.529C618.8 252.819 619.29 254.489 619.15 256.139C619.13 256.339 619.11 256.549 619.08 256.769L622.81 248.289L625.86 248.779Z" fill="#FF7C60"/>
<path d="M622.9 244.539C624.32 243.929 625.97 244.589 626.58 246.019C627.19 247.439 626.53 249.089 625.1 249.699C623.68 250.309 622.03 249.649 621.42 248.219C620.81 246.789 621.47 245.149 622.9 244.539Z" fill="#FCC9A7"/>
<path d="M619.82 236.099C619.82 236.099 617.54 223.949 607.23 227.269C595.87 230.929 600.89 244.039 600.44 246.909C599.92 250.269 598.16 253.769 593.29 254.429C593.29 254.429 606.9 257.489 607.67 247.959C608.32 239.939 612.12 236.679 616.45 239.769L619.82 236.099Z" fill="#FF7C60"/>
<path d="M618.38 262.389C618.38 262.389 616.03 261.479 614.84 274.239C613.65 286.999 612.86 346.379 612.86 346.379L649.91 340.069C649.91 340.069 643.19 286.969 626.6 263.139L618.38 262.389Z" fill="#383635"/>
<path d="M618.85 347.229C619.07 350.559 621.88 353.079 625.13 352.859C628.38 352.639 630.85 349.759 630.63 346.429C630.41 343.099 627.6 340.579 624.35 340.799C621.1 341.019 618.63 343.899 618.85 347.229Z" fill="#FCC9A7"/>
<path d="M622.078 343.68H628.148V332.27H622.078V343.68Z" fill="#FCC9A7"/>
<path d="M629.09 282.139V337.889H620.74L617.79 279.429C617.65 276.789 618.76 274.189 620.85 272.649C623.23 270.889 626.44 270.739 628.69 279.139C628.96 280.109 629.09 281.119 629.09 282.139Z" fill="#4F4D4B"/>
<path d="M629.09 337.889V334.349H620.56L620.75 337.889H629.09Z" fill="white"/>
<path d="M330.76 395.709L332.94 408.469L339.26 409.079L337.07 394.829L330.76 395.709Z" fill="#FCC9A7"/>
<path d="M332.07 407.589C332.2 407.139 332.67 406.969 333.01 407.239C333.66 407.779 334.83 408.429 336.5 408.199C338.24 407.969 338.86 406.909 339.09 406.169C339.21 405.779 339.58 405.569 339.91 405.719L351.74 410.679C352.4 410.979 352.92 411.569 353.19 412.309C353.45 413.009 353 413.779 352.34 413.789L332.96 413.909C332.24 413.909 331.66 413.229 331.7 412.399L331.87 408.359C331.87 408.289 331.88 408.229 331.9 408.159L332.07 407.589Z" fill="#1F252A"/>
<path d="M305.21 336.999H302.63V412.229H305.21V336.999Z" fill="#2A272D"/>
<path d="M299.62 321.529L318.1 355.469L329.79 402.619H340.4L332.83 350.219L299.62 321.529Z" fill="#232322"/>
<path d="M314.87 335.889H291.77C288.46 335.889 285.77 333.209 285.77 329.889C285.77 326.579 288.45 323.889 291.77 323.889H314.87C318.18 323.889 320.87 326.579 320.87 329.889C320.87 333.209 318.18 335.889 314.87 335.889Z" fill="#FFEEE3"/>
<path d="M315.01 335.889H292.81V338.109H315.01V335.889Z" fill="#2A272D"/>
<path d="M315.01 393.969H292.81V396.189H315.01V393.969Z" fill="#2A272D"/>
<path d="M302.72 260.059C298.27 259.519 294.05 262.209 292.35 266.349C290.91 269.839 289.71 274.899 290.99 280.769C294.89 298.739 292.56 311.169 292.56 311.169H313.69L313.61 286.699C313.61 286.699 315.07 283.849 315.86 280.119C316.97 274.899 316.55 274.219 313.5 269.599L307.01 261.679C307.02 261.679 305.57 260.399 302.72 260.059Z" fill="#FFD686"/>
<path d="M341.15 277.399C342.56 274.579 345.98 273.439 348.8 274.849C351.62 276.259 352.76 279.679 351.35 282.499C349.94 285.319 346.52 286.459 343.7 285.049C340.88 283.649 339.74 280.219 341.15 277.399Z" fill="#FCC9A7"/>
<path d="M342.4 275.749L331.66 285.949L335.74 290.489L344.11 283.319L342.4 275.749Z" fill="#FCC9A7"/>
<path d="M295.48 275.889L314.91 305.419C315.66 306.549 317.2 306.819 318.29 305.999L341.74 287.579L336.99 279.429L318.85 293.289L306.17 269.839C304.48 266.319 299.99 265.249 296.89 267.609C294.31 269.569 293.7 273.189 295.48 275.889Z" fill="#FFD686"/>
<path d="M303.94 264.529C302.71 264.519 301.4 264.009 300.43 263.509C299.47 263.019 298.87 262.009 298.88 260.929L299.08 241.089L307.75 241.129L307.55 260.719C307.54 262.969 305.92 264.539 303.94 264.529Z" fill="#FCC9A7"/>
<path d="M307.61 255.219L304.03 250.149C304.03 250.149 301.84 255.939 307.59 257.719L307.61 255.219Z" fill="#F2C09E"/>
<path d="M315.42 241.169C315.39 247.079 310.58 251.839 304.67 251.809C298.76 251.779 294 246.969 294.03 241.059C294.06 235.149 298.87 230.389 304.78 230.419C310.68 230.449 315.44 235.259 315.42 241.169Z" fill="#FCC9A7"/>
<path d="M308.37 255.279C305.57 255.269 303.3 252.979 303.32 250.179L303.35 242.859L315.41 241.169L315.38 248.339C315.36 252.189 312.23 255.299 308.37 255.279Z" fill="#FCC9A7"/>
<path d="M315.09 243.559L317.41 247.009C317.74 247.569 317.31 248.259 316.62 248.259L313.91 248.759L315.09 243.559Z" fill="#FCC9A7"/>
<path d="M303.36 245.789L307.91 245.629C307.91 245.629 308.3 241.679 309.19 240.729C310.08 239.779 310.53 235.559 310.53 235.559C310.53 235.559 308.38 238.189 307.75 240.909L317.28 240.669C317.28 240.669 318.7 229.109 304.27 228.549C289.83 227.989 290.23 241.649 293.07 244.359C295.33 246.519 298.99 251.819 298.99 251.819C298.99 251.819 298.82 245.949 303.36 245.789Z" fill="#4C1827"/>
<path d="M306.66 244.389C306.72 246.079 305.4 247.489 303.72 247.549C302.03 247.609 300.62 246.289 300.55 244.609C300.49 242.919 301.81 241.509 303.49 241.439C305.18 241.379 306.59 242.699 306.66 244.389Z" fill="#FCC9A7"/>
<path d="M297.84 227.069C298.3 230.859 295.61 234.299 291.83 234.769C288.04 235.229 284.6 232.539 284.13 228.749C283.67 224.959 286.36 221.519 290.15 221.059C293.94 220.589 297.38 223.279 297.84 227.069Z" fill="#4C1827"/>
<path d="M299.22 262.299C299.22 262.299 300.05 264.889 311.63 267.299L306.25 259.979L299.22 262.299Z" fill="#FCC9A7"/>
<path d="M303.92 408.429L288.4 413.739H319.42L303.92 408.429Z" fill="#2A272D"/>
<path d="M305.09 376.619L296.6 386.829L302.7 389.149L311.22 378.339L305.09 376.619Z" fill="#FCC9A7"/>
<path d="M296.89 385.439C297.19 385.089 297.69 385.109 297.89 385.499C298.27 386.259 299.07 387.319 300.7 387.779C302.39 388.259 304.24 386.779 304.74 386.189C305 385.879 305.43 385.829 305.67 386.109L316.06 393.399C316.54 393.939 316.78 394.689 316.74 395.479C316.7 396.219 315.98 396.749 315.37 396.489L294.81 391.289C294.15 390.999 293.89 390.139 294.26 389.399L296.4 386.059C296.43 385.999 296.47 385.939 296.51 385.889L296.89 385.439Z" fill="#1F252A"/>
<path d="M291.95 311.169C291.95 311.169 285.59 325.649 308.19 333.359L323.81 347.869L299.63 380.249L310.44 384.159L339.8 352.919C341.97 350.389 342.06 346.509 340.01 343.869L313.7 311.159H291.95V311.169Z" fill="#383635"/>
<path d="M414.93 298.379H337.72V302.679H414.93V298.379Z" fill="#FFEEE3"/>
<path d="M356.71 413.759V302.679" stroke="#2A272D" stroke-width="2.2811" stroke-miterlimit="10"/>
<path d="M395.32 413.759V302.679" stroke="#2A272D" stroke-width="2.2811" stroke-miterlimit="10"/>
<path d="M386.2 296.039H354.08V298.119H386.2V296.039Z" fill="#2A272D"/>
<path d="M386.2 298.129L396.6 267.769L394.42 267.249L384.23 296.409L386.2 298.129Z" fill="#2A272D"/>
<path d="M313.42 303.159L297.91 279.579" stroke="#EFC375" stroke-width="0.7847" stroke-miterlimit="10" stroke-linecap="round" stroke-linejoin="round"/>
<path d="M314.36 284.659L308.44 275.299" stroke="#EFC375" stroke-width="0.7847" stroke-miterlimit="10" stroke-linecap="round" stroke-linejoin="round"/>
<path d="M38.5201 311.089L39.5101 309.949C39.5101 309.949 40.0501 305.449 38.0401 300.269" stroke="#EFC375" stroke-width="0.7847" stroke-miterlimit="10" stroke-linecap="round" stroke-linejoin="round"/>
<path d="M211.44 61.4293L204.94 58.2193L201.32 63.1093L209.43 67.1393L211.44 61.4293Z" fill="#FFC9A6"/>
<path d="M194.57 56.0193C194.04 59.3393 196.26 62.5093 199.53 63.0993C202.8 63.6893 205.88 61.4693 206.41 58.1393C206.94 54.8193 204.72 51.6493 201.45 51.0593C198.18 50.4693 195.1 52.6893 194.57 56.0193Z" fill="#FFC9A6"/>
<path d="M188.62 48.8493C188.33 49.4893 188.62 50.2593 189.25 50.5693L203.56 57.3793C204.19 57.6793 204.95 57.3993 205.24 56.7593C205.53 56.1193 205.24 55.3393 204.61 55.0393L190.3 48.2293C189.66 47.9293 188.91 48.2093 188.62 48.8493Z" fill="black"/>
<path d="M239.09 42.4693L225.12 68.0693L208.73 59.1393L206.22 67.0293L226.87 80.9593C228.52 81.8693 230.56 81.2293 231.38 79.5293L246.35 60.6993L239.09 42.4693Z" fill="#EAD1B9"/>
<path d="M249.29 32.2393L249.94 31.7793C252.1 30.2593 255.38 31.3893 253.89 29.1793L241.3 10.3793L233.53 15.8493L243.86 31.2093C245.09 33.0293 247.52 33.4893 249.29 32.2393Z" fill="#FCC9A7"/>
<path d="M227 19.6393C229.62 24.7793 235.82 26.7593 240.83 24.0793C245.85 21.3993 247.79 15.0593 245.17 9.92927C242.01 3.73927 236.89 2.51927 231.34 5.48927C226.32 8.16927 224.38 14.5093 227 19.6393Z" fill="#FCC9A7"/>
<path d="M239.65 29.6493C242.03 28.3793 242.96 25.3693 241.71 22.9293L237.17 14.0293L226.93 19.4993L230.63 26.7593C232.34 30.0993 236.38 31.3993 239.65 29.6493Z" fill="#FCC9A7"/>
<path d="M228.33 21.5793L227.87 25.6293C227.84 26.2693 228.51 26.6693 229.09 26.3593L231.62 25.5793L228.33 21.5793Z" fill="#FCC9A7"/>
<path d="M241.74 16.8893L246.82 18.6193C246.82 18.6193 250.7 2.04927 238.26 0.00927173C238.26 0.00927173 227.86 -0.610729 223.99 8.28927C222.89 10.8293 222.99 14.7693 225.84 15.3593C225.84 15.3593 225.86 15.5793 225.84 15.3593C225.65 13.1293 226.46 11.1893 226.46 11.1893C226.46 11.1893 228.88 17.0993 233.79 16.5293L235.21 18.7193C235.75 19.5493 237.39 19.2293 238.25 18.7593L239.22 18.2393L237.92 15.6793L241.74 16.8893Z" fill="#0B1226"/>
<path d="M236.99 13.8193C235.95 14.9993 236.05 16.8293 237.2 17.8893C238.36 18.9493 240.14 18.8593 241.18 17.6693C242.22 16.4893 242.12 14.6593 240.97 13.5993C239.81 12.5393 238.03 12.6293 236.99 13.8193Z" fill="#FCC9A7"/>
<path d="M266.78 178.299L268.56 187.459L262.13 188.819L259.94 179.469L266.78 178.299Z" fill="#FCC9A7"/>
<path d="M269.73 186.909C269.55 186.429 268.97 186.259 268.58 186.579C267.81 187.199 266.43 187.959 264.38 187.799C262.26 187.629 261.46 186.519 261.16 185.719C261 185.299 260.55 185.089 260.14 185.269L247.26 191.189C246.48 191.549 245.87 192.209 245.56 193.029C245.27 193.799 245.85 194.619 246.65 194.589L268.9 193.829C269.78 193.799 270.45 193.029 270.37 192.129L270 187.749C269.99 187.679 269.98 187.609 269.95 187.539L269.73 186.909Z" fill="#0C0C0C"/>
<path d="M244.5 177.899L243.85 187.209L237.31 186.789L237.59 177.179L244.5 177.899Z" fill="#FCC9A7"/>
<path d="M235.39 80.0393L235.58 180.199H246.99L250.69 92.3893L235.39 80.0393Z" fill="#0C0C0C"/>
<path d="M239.76 34.9993C239.76 34.9993 241.52 31.0093 243.33 30.0993C245.14 29.1893 253.37 27.9993 253.37 27.9993C253.37 27.9993 262.75 34.3593 262.61 45.7493L261.79 80.0393H235.38C235.39 80.0393 233.42 49.0793 239.76 34.9993Z" fill="#F7E0C6"/>
<path d="M235.39 80.0393L240.06 94.4993L245.8 134.159L257.79 181.209L268.94 179.899L259.73 133.649L259.99 98.9893C259.99 98.9893 260.55 95.8093 258.95 80.0493H235.39V80.0393Z" fill="#232322"/>
<path d="M251.16 115.869C251.4 119.509 254.48 122.269 258.04 122.029C261.6 121.789 264.3 118.639 264.06 114.989C263.82 111.339 260.74 108.589 257.18 108.829C253.62 109.069 250.92 112.219 251.16 115.869Z" fill="#FCC9A7"/>
<path d="M254.687 111.977H261.337V99.4875H254.687V111.977Z" fill="#FCC9A7"/>
<path d="M262.37 44.6193V102.449H253.23L250 41.6493C249.85 38.7593 251.06 35.9193 253.35 34.2293C255.96 32.3093 259.46 32.1393 261.93 41.3293C262.23 42.3993 262.37 43.5093 262.37 44.6193Z" fill="#F7E0C6"/>
<path d="M262.37 102.449V98.5693H253.03L253.24 102.449H262.37Z" fill="#FFEEE3"/>
<path d="M245.48 185.429C245.32 184.939 244.75 184.739 244.34 185.039C243.54 185.619 242.12 186.309 240.09 186.049C237.98 185.779 237.23 184.629 236.97 183.809C236.83 183.379 236.39 183.149 235.98 183.309L222.84 188.579C222.04 188.899 221.4 189.529 221.06 190.339C220.74 191.099 221.27 191.939 222.08 191.959L244.34 192.299C245.22 192.309 245.92 191.569 245.89 190.679L245.73 186.279C245.73 186.209 245.71 186.139 245.69 186.069L245.48 185.429Z" fill="#0C0C0C"/>
<path d="M250.69 49.6593L252.05 80.0393L250.69 49.6593Z" stroke="#E8CCB1" stroke-width="0.7847" stroke-miterlimit="10" stroke-linecap="round" stroke-linejoin="round"/>
<path d="M229.74 12.2993C229.74 12.2993 222.38 23.1693 219.98 13.8493C217.58 4.52927 233.04 7.29927 233.04 7.29927L229.74 12.2993Z" fill="#0B1226"/>
<path d="M253.37 27.9993C253.37 27.9993 242.19 39.2293 240.83 32.9393C240.83 32.9393 242.04 29.9093 246.34 27.6493L253.37 27.9993Z" fill="#FCC9A7"/>
<path d="M208.73 59.1293L206.22 67.0193L209.28 69.0793L212.03 60.9293L208.73 59.1293Z" fill="#FFEEE3"/>
<path d="M527.22 130.699H496.49V179.459H527.22V130.699Z" fill="#B2B2B2"/>
<path d="M496.61 130.699H465.88V179.459H496.61V130.699Z" fill="#D1D1D1"/>
<path d="M480.51 71.5693L479.2 97.7793L473.04 116.999H484.13L489.89 100.439L491.69 81.6193L480.51 71.5693Z" fill="#F7EBE7"/>
<path d="M480.2 163.179L482.43 173.569L474.94 174.459L472.81 164.229L480.2 163.179Z" fill="#FCC9A7"/>
<path d="M482.88 172.629C482.69 172.069 482.09 171.869 481.68 172.229C480.88 172.939 479.44 173.809 477.31 173.599C475.1 173.379 474.27 172.079 473.95 171.139C473.78 170.649 473.31 170.399 472.89 170.609L459.48 177.349C458.67 177.759 458.03 178.519 457.71 179.469C457.41 180.359 458.01 181.319 458.85 181.299L482.02 180.659C482.93 180.639 483.63 179.739 483.55 178.699L483.17 173.599C483.16 173.519 483.15 173.429 483.12 173.349L482.88 172.629Z" fill="#1F252A"/>
<path d="M480.07 112.939H462.68C462.68 112.939 452.09 112.349 451.46 121.039C450.83 129.729 466.99 154.589 469.52 167.869L484.06 166.669L473.59 130.559L499.63 130.709C501.56 130.719 503.48 130.439 505.3 129.809C510.37 128.049 518.11 125.529 513.89 111.569L480.07 112.939Z" fill="#092330"/>
<path d="M493.49 163.219L497.03 175.639L489.54 176.529L486.1 164.269L493.49 163.219Z" fill="#FCC9A7"/>
<path d="M497.48 174.699C497.29 174.139 496.69 173.939 496.28 174.299C495.48 175.009 494.04 175.879 491.91 175.669C489.7 175.449 488.87 174.149 488.55 173.209C488.38 172.719 487.91 172.469 487.49 172.679L474.08 179.419C473.27 179.829 472.63 180.589 472.31 181.539C472.01 182.429 472.61 183.389 473.45 183.369L497.02 182.729C497.93 182.709 498.63 181.809 498.55 180.769L497.76 175.669C497.75 175.589 497.74 175.499 497.71 175.419L497.48 174.699Z" fill="#1F252A"/>
<path d="M500.85 61.2693C501.24 61.6493 518.69 66.0993 518.69 66.0993L514.96 76.0093L495.88 74.5693L500.85 61.2693Z" fill="#F7EBE7"/>
<path d="M493.65 63.6593C493.65 63.6593 482.28 67.8093 480.51 71.5693C481.12 76.8793 482.99 81.9893 486.07 86.3593C489.85 91.7193 494.52 100.929 493.66 112.939H526.53C526.53 112.939 524.76 79.1493 515.03 66.1793L493.65 63.6593Z" fill="#F7EBE7"/>
<path d="M497.38 69.0193C500.61 68.3593 502.69 65.2093 502.03 61.9793L500.1 52.5293L488.41 54.9193L490.34 64.3693C491 67.5993 494.15 69.6793 497.38 69.0193Z" fill="#FCC9A7"/>
<path d="M500.9 55.8293C500.9 55.8293 499.67 63.4893 493.71 63.9493C488.49 64.3493 488.99 56.7993 488.99 56.7993L500.9 55.8293Z" fill="#F4BE9A"/>
<path d="M494.18 59.7493L495.21 59.5093C500.38 58.3093 503.6 53.1493 502.4 47.9893L501.04 42.0993C499.84 36.9293 494.68 33.7093 489.52 34.9093L488.49 35.1493C483.32 36.3493 480.1 41.5093 481.3 46.6693L482.66 52.5593C483.86 57.7293 489.02 60.9493 494.18 59.7493Z" fill="#FCC9A7"/>
<path d="M499.16 50.4393C498.92 50.8493 498.69 51.4693 498.61 52.4093C498.52 53.5993 497.92 54.7293 496.92 55.3893C494.05 57.2893 491.86 52.4793 487.62 53.3293C487.62 53.3293 485.96 53.5793 485.63 55.4293C485.3 57.2693 482.99 54.0493 482.48 51.8493C481.97 49.6493 481.71 62.7393 492.15 61.6293C492.15 61.6293 497.42 61.4593 500.97 56.0893C501.36 55.4993 501.59 54.8093 501.61 54.0993C501.64 53.0493 501.49 51.4593 500.49 50.3193C500.14 49.8993 499.44 49.9593 499.16 50.4393Z" fill="#1C2226"/>
<path d="M499.17 47.4693C499.17 47.4693 494.66 45.9793 495.42 39.3893C495.42 39.3893 484.22 49.9893 475.92 42.2093C475.92 42.2093 479.63 41.2193 481.16 38.6793C483.95 34.0493 491.97 27.6693 498.39 35.0493C498.39 35.0493 506.2 33.8393 503.96 45.8693L499.17 47.4693Z" fill="#1C2226"/>
<path d="M499.17 47.4693C499.6 49.3093 501.44 50.4593 503.28 50.0393C505.13 49.6093 506.27 47.7693 505.85 45.9293C505.42 44.0893 503.58 42.9393 501.74 43.3593C499.89 43.7893 498.74 45.6293 499.17 47.4693Z" fill="#FCC9A7"/>
<path d="M493.47 68.6493L498.3 68.7393L494.92 75.7393L491.27 69.0293L493.47 68.6493Z" fill="#0C2C40"/>
<path d="M502.44 61.5793L496.22 68.8393L500.27 73.4893L507.72 63.2493C507.72 63.2493 505.81 60.1793 502.44 61.5793Z" fill="#FFF7F3"/>
<path d="M493.47 68.6493L489.89 72.6893L487.37 66.3893C487.37 66.3893 488.03 63.5593 490.09 64.0993L493.47 68.6493Z" fill="#FFF7F3"/>
<path d="M494.79 73.4793C494.79 73.4793 490.12 85.6593 491.28 102.939L495.88 107.139L501.25 101.969L495.46 72.6893L494.79 73.4793Z" fill="#0C2C40"/>
<path d="M503.52 102.399L493.52 105.689L492.86 111.559L506.12 107.599L503.52 102.399Z" fill="#FCC9A7"/>
<path d="M495.01 109.569C495.01 112.999 492.23 115.789 488.79 115.789C485.36 115.789 482.57 113.009 482.57 109.569C482.57 106.139 485.35 103.349 488.79 103.349C492.22 103.349 495.01 106.129 495.01 109.569Z" fill="#FCC9A7"/>
<path d="M493.65 112.939H476.27C476.27 112.939 465.68 112.349 465.05 121.039C464.42 129.729 481.77 156.189 484.3 169.459L498.84 168.259L487.18 130.549L513.22 130.699C515.15 130.709 517.07 130.429 518.89 129.799C523.96 128.039 531.7 125.519 527.48 111.559L493.65 112.939Z" fill="#0C2C40"/>
<path d="M441.22 82.2093H471.27C472.26 82.2093 473.11 82.8993 473.32 83.8693L478.98 110.409C479.26 111.709 478.26 112.939 476.93 112.939H446.38C445.38 112.939 444.52 112.229 444.33 111.249L439.17 84.7093C438.91 83.4093 439.9 82.2093 441.22 82.2093Z" fill="#B2B2B2"/>
<path d="M439.49 82.2093H469.53C470.52 82.2093 471.37 82.8993 471.58 83.8693L477.24 110.409C477.52 111.709 476.53 112.939 475.19 112.939H444.65C443.65 112.939 442.79 112.229 442.6 111.249L437.44 84.7093C437.18 83.4093 438.17 82.2093 439.49 82.2093Z" fill="#D1D1D1"/>
<path d="M478.16 110.669H498.69C499.32 110.669 499.82 111.179 499.82 111.799C499.82 112.429 499.31 112.929 498.69 112.929H477.76L478.16 110.669Z" fill="#B2B2B2"/>
<path d="M458.09 96.8793C458.09 98.6893 456.63 100.149 454.82 100.149C453.01 100.149 451.55 98.6793 451.55 96.8793C451.55 95.0693 453.02 93.6093 454.82 93.6093C456.63 93.6093 458.09 95.0693 458.09 96.8793Z" fill="white"/>
<path d="M511.52 75.5393L522.5 93.2693L496.22 102.649L499.82 110.429C499.82 110.429 522.29 107.909 533.15 99.5393C534.15 98.7693 534.65 97.5193 534.48 96.2693C533.97 92.2693 531.79 82.5593 522.5 68.7593C520.61 65.9493 516.85 65.0993 513.92 66.7993C510.87 68.5593 509.8 72.4593 511.52 75.5393Z" fill="#F7EBE7"/>
<path d="M503.21 100.149L522.5 93.2693L512.85 77.6793" stroke="#EADDD8" stroke-width="0.7599" stroke-miterlimit="10" stroke-linecap="round" stroke-linejoin="round"/>
<path d="M490.15 94.2793L485.4 81.7393" stroke="#EADDD8" stroke-width="0.7599" stroke-miterlimit="10" stroke-linecap="round" stroke-linejoin="round"/>
<path d="M503.52 109.899C503.52 109.899 518.28 108.049 525.72 103.789" stroke="#EADDD8" stroke-width="0.7599" stroke-miterlimit="10" stroke-linecap="round" stroke-linejoin="round"/>
<path d="M605.05 85.6293C607.64 84.0693 611.01 84.8993 612.57 87.4993C614.13 90.0893 613.3 93.4593 610.7 95.0193C608.11 96.5793 604.74 95.7493 603.18 93.1493C601.62 90.5693 602.46 87.1993 605.05 85.6293Z" fill="#FCC9A7"/>
<path d="M611.26 86.0193C611.08 85.8793 601.46 74.5793 601.46 74.5793L597.53 79.3393L606.21 90.3293L611.26 86.0193Z" fill="#FCC9A7"/>
<path d="M603.15 174.119L600.7 185.309L592.96 184.149L595.46 173.109L603.15 174.119Z" fill="#FCC9A7"/>
<path d="M637.85 173.119L637.94 184.579L630.15 185.159L630.13 173.839L637.85 173.119Z" fill="#FCC9A7"/>
<path d="M601.68 183.489C601.52 183.019 600.95 182.819 600.54 183.119C599.74 183.699 598.33 184.379 596.29 184.139C594.17 183.889 593.41 182.769 593.15 181.969C593.01 181.549 592.56 181.329 592.15 181.489L579.02 186.749C578.22 187.069 577.58 187.689 577.25 188.479C576.93 189.219 577.47 190.049 578.28 190.049L600.59 190.209C601.47 190.219 602.17 189.489 602.13 188.609L601.94 184.299C601.94 184.229 601.92 184.159 601.9 184.089L601.68 183.489Z" fill="#0C0C0C"/>
<path d="M629.36 183.489C629.52 183.019 630.1 182.819 630.5 183.119C631.3 183.699 632.71 184.379 634.75 184.139C636.87 183.889 637.62 182.769 637.89 181.969C638.03 181.549 638.48 181.329 638.89 181.489L652.02 186.749C652.82 187.069 653.46 187.689 653.79 188.479C654.11 189.219 653.57 190.049 652.76 190.049L630.45 190.209C629.57 190.219 628.87 189.489 628.91 188.609L629.1 184.299C629.1 184.229 629.12 184.159 629.14 184.089L629.36 183.489Z" fill="#0C0C0C"/>
<path d="M629.26 29.4493L622.33 30.0493L611.31 36.2593V80.4193H640.72V36.2593L629.26 29.4493Z" fill="#54585A"/>
<path d="M627.36 33.8993H625.37C623.31 33.8993 621.64 32.2293 621.64 30.1693V22.6893H631.08V30.1693C631.09 32.2293 629.42 33.8993 627.36 33.8993Z" fill="#FCC9A7"/>
<path d="M621.64 26.4993C621.64 26.4993 623.11 29.4493 626.45 29.4493C629.79 29.4493 631.08 26.4393 631.08 26.4393L621.64 26.4993Z" fill="#F4BE9A"/>
<path d="M626.47 27.7193H626.16C621.35 27.7193 617.39 23.9193 617.2 19.1093L617.03 14.3193C616.83 9.22927 620.9 4.99927 625.99 4.99927H626.64C630.49 4.99927 635.8 9.22927 635.6 14.3193L635.43 19.1093C635.24 23.9193 631.28 27.7193 626.47 27.7193Z" fill="#FCC9A7"/>
<path d="M619.95 17.9493C620.06 19.5693 618.84 20.9693 617.22 21.0793C615.6 21.1893 614.2 19.9693 614.09 18.3493C613.98 16.7293 615.2 15.3293 616.82 15.2193C618.44 15.1193 619.84 16.3393 619.95 17.9493Z" fill="#FCC9A7"/>
<path d="M638.53 17.9493C638.64 19.5693 637.42 20.9693 635.8 21.0793C634.18 21.1893 632.78 19.9693 632.67 18.3493C632.56 16.7293 633.78 15.3293 635.4 15.2193C637.02 15.1193 638.42 16.3393 638.53 17.9493Z" fill="#FCC9A7"/>
<path d="M611.31 80.2093L593.02 177.439L603.53 177.339L630.27 80.3993L611.31 80.2093Z" fill="#0C0C0C"/>
<path d="M640.72 80.4193L639.57 177.539H628.46L624.03 81.0293L640.72 80.4193Z" fill="#0C0C0C"/>
<path d="M611.31 36.2593C611.31 36.2593 586.75 51.0793 580.78 61.3593C579.61 63.3693 581.13 65.9693 583.19 67.0393C585.47 68.2293 588.28 67.4193 589.59 65.2093L612.31 52.0293C612.32 52.0293 611.31 40.7093 611.31 36.2593Z" fill="#54585A"/>
<path d="M616.52 8.87927L617.21 16.2393H618.32L618.46 12.3793C618.46 12.3793 619.04 10.8993 621.63 7.71927C621.63 7.71927 623.32 12.0393 633.79 11.1993L634.4 16.0793L635.48 15.9593L636.05 10.7193C636.43 8.94927 636.56 7.29927 636.24 5.51927C635.59 1.91927 632.66 -0.0707294 624.2 2.46927C623.5 2.67927 624.93 2.53927 624.2 2.46927C621.78 2.19927 615.4 2.16927 616.52 8.87927Z" fill="#2E2A33"/>
<path d="M628.98 79.7193L626.6 105.179C626.51 106.139 627.16 107.009 628.11 107.189L657.31 112.769C658.38 112.979 659.4 112.219 659.52 111.139L662.19 86.9393C662.29 85.9993 661.68 85.1293 660.75 84.9093L631.26 78.0693C630.16 77.8093 629.09 78.5893 628.98 79.7193Z" fill="#AFAFAF"/>
<path d="M630.6 80.1693L628.22 105.629C628.13 106.589 628.78 107.459 629.73 107.639L658.93 113.219C660 113.419 661.02 112.669 661.14 111.589L663.81 87.3893C663.91 86.4493 663.3 85.5793 662.37 85.3593L632.88 78.5193C631.79 78.2593 630.71 79.0393 630.6 80.1693Z" fill="#D1D1D1"/>
<path d="M645.8 106.159C648.7 107.019 650.36 110.069 649.5 112.969C648.64 115.869 645.59 117.529 642.69 116.679C639.79 115.819 638.13 112.769 638.98 109.869C639.85 106.959 642.89 105.299 645.8 106.159Z" fill="#FCC9A7"/>
<path d="M649.71 110.999C649.69 110.769 648.75 95.5093 648.75 95.5093L643.56 96.4493L644.25 109.459L649.71 110.999Z" fill="#FCC9A7"/>
<path d="M640.72 36.2593C640.72 36.2593 648.58 41.8893 649.08 49.9093L651.54 68.6593C651.68 69.7593 651.74 70.8593 651.7 71.9693L650.75 100.489H639.96L639.76 69.6193L640.72 36.2593Z" fill="#54585A"/>
<path d="M623.16 29.4493C622.32 30.0593 618.27 32.3393 618.27 32.3393C618.27 32.3393 618.38 38.0393 626.96 37.5793C634.51 37.1793 634.46 32.5493 634.46 32.5493L629.25 29.4493H623.16Z" fill="#FCC9A7"/>
<path d="M592.88 57.6593L607.56 81.1193L600.6 87.7093L580.82 64.6193L592.88 57.6593Z" fill="#54585A"/>
<path d="M639.75 80.1093V69.6093L637.31 50.4593" stroke="#424647" stroke-width="0.7693" stroke-miterlimit="10" stroke-linecap="round" stroke-linejoin="round"/>
</svg>
